<?xml version="1.0"?>
<svg xmlns="http://www.w3.org/2000/svg" viewBox="0 0 32 32">
    <path style="text-indent:0;text-align:start;line-height:normal;text-transform:none;block-progression:tb;-inkscape-font-specification:Sans" d="M 15 4 L 15 5 L 15 9 L 17 9 L 17 6.1875 C 22.040418 6.7083394 26 10.818825 26 16 C 26 21.534534 21.534534 26 16 26 C 10.465466 26 6 21.534534 6 16 C 6 12.78587 7.4954192 9.9245749 9.84375 8.09375 L 8.625 6.53125 C 5.8093308 8.7264251 4 12.15813 4 16 C 4 22.615466 9.3845336 28 16 28 C 22.615466 28 28 22.615466 28 16 C 28 9.3845336 22.615466 4 16 4 L 15 4 z M 10.71875 9.28125 L 9.28125 10.71875 L 15.28125 16.71875 C 15.462214 16.899714 15.723858 17 16 17 C 16.552285 17 17 16.552285 17 16 C 17 15.723857 16.899714 15.462214 16.71875 15.28125 L 10.71875 9.28125 z" overflow="visible" font-family="Sans"/>
</svg>
